<svg id="Layer_1" data-name="Layer 1" xmlns="http://www.w3.org/2000/svg" xmlns:xlink="http://www.w3.org/1999/xlink" viewBox="0 0 108.31 72.71"><defs><style>.cls-1,.cls-19{fill:none;}.cls-2{fill:#6566af;}.cls-3{clip-path:url(#clip-path);}.cls-4{clip-path:url(#clip-path-2);}.cls-5{clip-path:url(#clip-path-3);}.cls-6{clip-path:url(#clip-path-4);}.cls-7{clip-path:url(#clip-path-5);}.cls-8{fill:url(#radial-gradient);}.cls-9{clip-path:url(#clip-path-6);}.cls-10{clip-path:url(#clip-path-8);}.cls-11{clip-path:url(#clip-path-9);}.cls-12{clip-path:url(#clip-path-10);}.cls-13{fill:url(#radial-gradient-2);}.cls-14{clip-path:url(#clip-path-11);}.cls-15{clip-path:url(#clip-path-12);}.cls-16{clip-path:url(#clip-path-13);}.cls-17{clip-path:url(#clip-path-14);}.cls-18{fill:#ffc300;}.cls-19{stroke:#1d4479;stroke-linecap:round;stroke-miterlimit:10;stroke-width:6px;}.cls-20{clip-path:url(#clip-path-15);}</style><clipPath id="clip-path" transform="translate(-35.25 11.02)"><rect class="cls-1" x="50.95" y="19.99" width="34.13" height="24.67"/></clipPath><clipPath id="clip-path-2" transform="translate(-35.25 11.02)"><rect class="cls-1" x="50.95" y="1.34" width="34.24" height="43.41" rx="2.63"/></clipPath><clipPath id="clip-path-3" transform="translate(-35.25 11.02)"><path class="cls-1" d="M72.77,44.66H51v-6H72.77a6.35,6.35,0,0,0,0-12.69H51V20H72.77a12.33,12.33,0,0,1,0,24.65Z"/></clipPath><clipPath id="clip-path-4" transform="translate(-35.25 11.02)"><path class="cls-1" d="M72.77,44.66H51v-6H72.77a6.35,6.35,0,0,0,0-12.69H51V20H72.77a12.33,12.33,0,0,1,0,24.65"/></clipPath><clipPath id="clip-path-5" transform="translate(-35.25 11.02)"><polygon class="cls-1" points="69.32 61.69 97.36 31.4 66.72 2.98 38.68 33.28 69.32 61.69"/></clipPath><radialGradient id="radial-gradient" cx="172.6" cy="133.32" r="48.17" gradientTransform="matrix(-0.98, -0.91, -0.91, 0.98, 370.92, 74.01)" gradientUnits="userSpaceOnUse"><stop offset="0" stop-color="#d2d2d2"/><stop offset="0.01" stop-color="#d1d1d1"/><stop offset="0.01" stop-color="#d0d0d0"/><stop offset="0.02" stop-color="#d0d0cf"/><stop offset="0.02" stop-color="#cfcfce"/><stop offset="0.02" stop-color="#cececd"/><stop offset="0.03" stop-color="#cdcdcc"/><stop offset="0.03" stop-color="#cdcccc"/><stop offset="0.04" stop-color="#cccccb"/><stop offset="0.04" stop-color="#cbcbca"/><stop offset="0.04" stop-color="#cbcaca"/><stop offset="0.05" stop-color="#cacac9"/><stop offset="0.05" stop-color="#cac9c8"/><stop offset="0.05" stop-color="#c9c9c8"/><stop offset="0.06" stop-color="#c8c8c7"/><stop offset="0.06" stop-color="#c7c7c6"/><stop offset="0.07" stop-color="#c7c6c6"/><stop offset="0.07" stop-color="#c6c5c5"/><stop offset="0.07" stop-color="#c6c5c5"/><stop offset="0.08" stop-color="#c5c5c4"/><stop offset="0.08" stop-color="#c5c4c4"/><stop offset="0.09" stop-color="#c4c3c3"/><stop offset="0.09" stop-color="#c4c3c2"/><stop offset="0.09" stop-color="#c3c2c2"/><stop offset="0.1" stop-color="#c2c1c1"/><stop offset="0.1" stop-color="#c2c1c0"/><stop offset="0.11" stop-color="#c1c0bf"/><stop offset="0.11" stop-color="#c0bfbf"/><stop offset="0.11" stop-color="#bfbebe"/><stop offset="0.12" stop-color="#bfbebd"/><stop offset="0.12" stop-color="#bebdbd"/><stop offset="0.13" stop-color="#bdbcbc"/><stop offset="0.13" stop-color="#bdbcbb"/><stop offset="0.13" stop-color="#bcbbbb"/><stop offset="0.14" stop-color="#bcbaba"/><stop offset="0.14" stop-color="#bbbaba"/><stop offset="0.14" stop-color="#bab9b9"/><stop offset="0.15" stop-color="#bab8b8"/><stop offset="0.15" stop-color="#b9b8b8"/><stop offset="0.16" stop-color="#b9b8b8"/><stop offset="0.16" stop-color="#b8b7b7"/><stop offset="0.16" stop-color="#b8b7b6"/><stop offset="0.17" stop-color="#b7b6b6"/><stop offset="0.17" stop-color="#b7b5b5"/><stop offset="0.18" stop-color="#b6b5b5"/><stop offset="0.18" stop-color="#b6b4b4"/><stop offset="0.18" stop-color="#b5b3b3"/><stop offset="0.19" stop-color="#b4b2b2"/><stop offset="0.19" stop-color="#b3b2b2"/><stop offset="0.2" stop-color="#b3b1b1"/><stop offset="0.2" stop-color="#b2b0b0"/><stop offset="0.2" stop-color="#b1b0b0"/><stop offset="0.21" stop-color="#b1afaf"/><stop offset="0.21" stop-color="#b0aeaf"/><stop offset="0.21" stop-color="#b0aeae"/><stop offset="0.22" stop-color="#afadae"/><stop offset="0.22" stop-color="#afadad"/><stop offset="0.23" stop-color="#aeacad"/><stop offset="0.23" stop-color="#adacac"/><stop offset="0.23" stop-color="#adabac"/><stop offset="0.24" stop-color="#acabab"/><stop offset="0.24" stop-color="#acaaab"/><stop offset="0.25" stop-color="#acaaaa"/><stop offset="0.25" stop-color="#aba9a9"/><stop offset="0.25" stop-color="#aaa8a9"/><stop offset="0.26" stop-color="#a9a7a8"/><stop offset="0.26" stop-color="#a9a7a7"/><stop offset="0.27" stop-color="#a8a6a6"/><stop offset="0.27" stop-color="#a8a6a6"/><stop offset="0.27" stop-color="#a7a5a5"/><stop offset="0.28" stop-color="#a7a5a5"/><stop offset="0.28" stop-color="#a6a4a4"/><stop offset="0.29" stop-color="#a6a3a4"/><stop offset="0.29" stop-color="#a5a2a3"/><stop offset="0.29" stop-color="#a4a2a3"/><stop offset="0.3" stop-color="#a3a1a2"/><stop offset="0.3" stop-color="#a3a1a2"/><stop offset="0.3" stop-color="#a2a0a1"/><stop offset="0.31" stop-color="#a2a0a1"/><stop offset="0.31" stop-color="#a19fa0"/><stop offset="0.32" stop-color="#a09f9f"/><stop offset="0.32" stop-color="#9f9e9f"/><stop offset="0.33" stop-color="#9f9d9e"/><stop offset="0.34" stop-color="#9e9c9d"/><stop offset="0.34" stop-color="#9d9b9c"/><stop offset="0.35" stop-color="#9d9b9b"/><stop offset="0.35" stop-color="#9c999a"/><stop offset="0.36" stop-color="#9b9899"/><stop offset="0.36" stop-color="#9b9899"/><stop offset="0.37" stop-color="#9a9798"/><stop offset="0.37" stop-color="#999798"/><stop offset="0.38" stop-color="#989697"/><stop offset="0.38" stop-color="#989697"/><stop offset="0.38" stop-color="#979596"/><stop offset="0.39" stop-color="#969495"/><stop offset="0.39" stop-color="#969495"/><stop offset="0.4" stop-color="#959394"/><stop offset="0.4" stop-color="#949293"/><stop offset="0.41" stop-color="#939292"/><stop offset="0.42" stop-color="#939192"/><stop offset="0.43" stop-color="#929091"/><stop offset="0.43" stop-color="#918f90"/><stop offset="0.44" stop-color="#908e8f"/><stop offset="0.44" stop-color="#908d8f"/><stop offset="0.45" stop-color="#8f8c8e"/><stop offset="0.46" stop-color="#8e8b8d"/><stop offset="0.46" stop-color="#8d8a8c"/><stop offset="0.47" stop-color="#8c8a8b"/><stop offset="0.48" stop-color="#8b898a"/><stop offset="0.48" stop-color="#8a8889"/><stop offset="0.49" stop-color="#898789"/><stop offset="0.5" stop-color="#888688"/><stop offset="0.5" stop-color="#888687"/><stop offset="0.51" stop-color="#878687"/><stop offset="0.51" stop-color="#878586"/><stop offset="0.52" stop-color="#868586"/><stop offset="0.52" stop-color="#868486"/><stop offset="0.52" stop-color="#858485"/><stop offset="0.53" stop-color="#858385"/><stop offset="0.53" stop-color="#858385"/><stop offset="0.54" stop-color="#848284"/><stop offset="0.54" stop-color="#848284"/><stop offset="0.54" stop-color="#838183"/><stop offset="0.55" stop-color="#838183"/><stop offset="0.55" stop-color="#828082"/><stop offset="0.55" stop-color="#828082"/><stop offset="0.56" stop-color="#817f81"/><stop offset="0.56" stop-color="#817e81"/><stop offset="0.57" stop-color="#807e80"/><stop offset="0.57" stop-color="#7f7d80"/><stop offset="0.57" stop-color="#7f7d7f"/><stop offset="0.58" stop-color="#7e7d7f"/><stop offset="0.58" stop-color="#7e7c7e"/><stop offset="0.59" stop-color="#7d7c7e"/><stop offset="0.59" stop-color="#7d7b7d"/><stop offset="0.59" stop-color="#7c7b7d"/><stop offset="0.6" stop-color="#7c7a7d"/><stop offset="0.6" stop-color="#7b7a7c"/><stop offset="0.61" stop-color="#7b797c"/><stop offset="0.61" stop-color="#7b797b"/><stop offset="0.61" stop-color="#7a797b"/><stop offset="0.62" stop-color="#7a787a"/><stop offset="0.62" stop-color="#79787a"/><stop offset="0.63" stop-color="#79787a"/><stop offset="0.63" stop-color="#787779"/><stop offset="0.63" stop-color="#787679"/><stop offset="0.64" stop-color="#777578"/><stop offset="0.64" stop-color="#777578"/><stop offset="0.65" stop-color="#767477"/><stop offset="0.65" stop-color="#767377"/><stop offset="0.66" stop-color="#757376"/><stop offset="0.67" stop-color="#747375"/><stop offset="0.68" stop-color="#737274"/><stop offset="0.68" stop-color="#727174"/><stop offset="0.69" stop-color="#717073"/><stop offset="0.69" stop-color="#706f72"/><stop offset="0.7" stop-color="#6f6e71"/><stop offset="0.71" stop-color="#6e6d70"/><stop offset="0.71" stop-color="#6e6d70"/><stop offset="0.72" stop-color="#6e6d70"/><stop offset="0.73" stop-color="#6d6c6f"/><stop offset="0.73" stop-color="#6c6c6e"/><stop offset="0.74" stop-color="#6c6b6d"/><stop offset="0.75" stop-color="#6b6a6d"/><stop offset="0.75" stop-color="#6a6a6d"/><stop offset="0.76" stop-color="#6a696c"/><stop offset="0.76" stop-color="#69696c"/><stop offset="0.77" stop-color="#69686c"/><stop offset="0.77" stop-color="#69686b"/><stop offset="0.77" stop-color="#68676b"/><stop offset="0.78" stop-color="#67676b"/><stop offset="0.78" stop-color="#67666a"/><stop offset="0.79" stop-color="#66666a"/><stop offset="0.8" stop-color="#666569"/><stop offset="0.8" stop-color="#656568"/><stop offset="0.8" stop-color="#656468"/><stop offset="0.81" stop-color="#646468"/><stop offset="0.81" stop-color="#636367"/><stop offset="0.82" stop-color="#626266"/><stop offset="0.82" stop-color="#626265"/><stop offset="0.83" stop-color="#616164"/><stop offset="0.84" stop-color="#606064"/><stop offset="0.85" stop-color="#606064"/><stop offset="0.85" stop-color="#5f5f63"/><stop offset="0.86" stop-color="#5f5f62"/><stop offset="0.86" stop-color="#5e5f62"/><stop offset="0.87" stop-color="#5e5e61"/><stop offset="0.88" stop-color="#5d5d61"/><stop offset="0.88" stop-color="#5d5d60"/><stop offset="0.89" stop-color="#5c5d60"/><stop offset="0.89" stop-color="#5c5c60"/><stop offset="0.89" stop-color="#5b5c5f"/><stop offset="0.9" stop-color="#5b5b5f"/><stop offset="0.9" stop-color="#5a5b5f"/><stop offset="0.91" stop-color="#5a5a5f"/><stop offset="0.91" stop-color="#595a5e"/><stop offset="0.92" stop-color="#595a5e"/><stop offset="0.93" stop-color="#58595d"/><stop offset="0.93" stop-color="#57585c"/><stop offset="0.94" stop-color="#56575b"/><stop offset="0.95" stop-color="#55565b"/><stop offset="0.96" stop-color="#54555a"/><stop offset="0.96" stop-color="#54555a"/><stop offset="0.97" stop-color="#535559"/><stop offset="0.98" stop-color="#535458"/><stop offset="0.98" stop-color="#525458"/><stop offset="0.99" stop-color="#525357"/><stop offset="0.99" stop-color="#525357"/><stop offset="1" stop-color="#515357"/></radialGradient><clipPath id="clip-path-6" transform="translate(-35.25 11.02)"><rect class="cls-1" x="52.61" y="19.99" width="23.53" height="6.01"/></clipPath><clipPath id="clip-path-8" transform="translate(-35.25 11.02)"><path class="cls-1" d="M69.19,20a6.31,6.31,0,0,1-4.27,1.66H52.61V26H71.09a12.38,12.38,0,0,0,5-5.52A12.25,12.25,0,0,0,72.77,20Z"/></clipPath><clipPath id="clip-path-9" transform="translate(-35.25 11.02)"><path class="cls-1" d="M69.19,20a6.31,6.31,0,0,1-4.27,1.66H52.61V26H71.09a12.38,12.38,0,0,0,5-5.52A12.25,12.25,0,0,0,72.77,20H69.19"/></clipPath><clipPath id="clip-path-10" transform="translate(-35.25 11.02)"><rect class="cls-1" x="59.79" y="10.95" width="9.15" height="24.1" transform="translate(32.76 83.61) rotate(-82.13)"/></clipPath><radialGradient id="radial-gradient-2" cx="135.68" cy="99.67" r="12.77" gradientTransform="matrix(-1.32, -0.18, -0.18, 1.32, 281.37, -81.22)" xlink:href="#radial-gradient"/><clipPath id="clip-path-11" transform="translate(-35.25 11.02)"><rect class="cls-1" x="50.9" y="1.3" width="34.24" height="43.41" rx="2.63"/></clipPath><clipPath id="clip-path-12" transform="translate(-35.25 11.02)"><path class="cls-1" d="M63.21,1.3H50.9V14h6V7.28h6.33a6.34,6.34,0,0,1,0,12.68H50.9V32.65h6V26h6.33a12.33,12.33,0,0,0,0-24.65Z"/></clipPath><clipPath id="clip-path-13" transform="translate(-35.25 11.02)"><path class="cls-1" d="M63.21,1.3H50.9V14h6V7.28h6.33a6.34,6.34,0,0,1,0,12.68H50.9V32.65h6V26h6.33a12.33,12.33,0,0,0,0-24.65"/></clipPath><clipPath id="clip-path-14" transform="translate(-35.25 11.02)"><rect class="cls-2" x="43.4" y="-2.78" width="39.63" height="39.51" transform="translate(6.93 50.39) rotate(-45.73)"/></clipPath><clipPath id="clip-path-15" transform="translate(-35.25 11.02)"><path id="SVGID" class="cls-1" d="M75.58,13.7A12.32,12.32,0,0,0,63.27,1.38H51V14.06h6V7.36h6.33a6.34,6.34,0,0,1,0,12.68H51V32.72h6V26h6.33A12.32,12.32,0,0,0,75.58,13.7Z"/></clipPath></defs><g class="cls-3"><g class="cls-4"><g class="cls-5"><g class="cls-6"><g class="cls-7"><path class="cls-8" d="M69.32,61.69l28-30.29L66.72,3l-28,30.3Z" transform="translate(-35.25 11.02)"/></g></g></g></g></g><g class="cls-9"><g class="cls-4"><g class="cls-10"><g class="cls-11"><g class="cls-12"><path class="cls-13" d="M75.67,29.19l1.25-9.07-23.87-3.3L51.8,25.88Z" transform="translate(-35.25 11.02)"/></g></g></g></g></g><rect class="cls-1" x="15.71" y="12.37" width="24.64" height="31.41"/><g class="cls-14"><g class="cls-15"><g class="cls-16"><rect class="cls-2" x="43.4" y="-2.78" width="39.63" height="39.51" transform="translate(-28.31 61.41) rotate(-45.73)"/><g class="cls-17"><path class="cls-2" d="M63.51,45,91.18,16.59,62.91-11,35.25,17.36Z" transform="translate(-35.25 11.02)"/></g></g></g></g><path d="M92.89,30.57l-2,6V40h-2V36.52l-2-6h1.91l1.12,3.91L91,30.57Z" transform="translate(-35.25 11.02)"/><path d="M93.22,32.29V30.57h5.07v1.72H96.77V40h-2V32.29Z" transform="translate(-35.25 11.02)"/><path d="M101.25,38.26h2.25V40H99.23V30.57h4.27v1.65h-2.25v2.2h2.11V36h-2.11Z" transform="translate(-35.25 11.02)"/><path d="M108.4,30.57c1.2,0,1.8.64,1.8,1.91V38q0,1.92-1.8,1.92h-3.72V30.57Zm-.23,7.69v-6a.29.29,0,0,0-.09-.21.26.26,0,0,0-.19-.08h-1.18v6.61h1.18a.23.23,0,0,0,.19-.09A.27.27,0,0,0,108.17,38.26Z" transform="translate(-35.25 11.02)"/><path class="cls-18" d="M96.07,43.26a.24.24,0,0,0-.09-.2,1.24,1.24,0,0,0-.34-.15,2.14,2.14,0,0,1-.38-.15.64.64,0,0,1-.38-.56.51.51,0,0,1,.1-.32.64.64,0,0,1,.29-.22,1.2,1.2,0,0,1,.86,0,.68.68,0,0,1,.3.25.63.63,0,0,1,.1.36h-.46A.27.27,0,0,0,96,42a.37.37,0,0,0-.27-.09.54.54,0,0,0-.27.07.25.25,0,0,0-.09.2.22.22,0,0,0,.11.18,1.33,1.33,0,0,0,.33.13,1.37,1.37,0,0,1,.57.3.59.59,0,0,1,.18.44.55.55,0,0,1-.22.46,1,1,0,0,1-.59.16,1.19,1.19,0,0,1-.47-.09.89.89,0,0,1-.33-.27.68.68,0,0,1-.11-.38h.46c0,.25.15.37.45.37a.5.5,0,0,0,.26-.06A.23.23,0,0,0,96.07,43.26Z" transform="translate(-35.25 11.02)"/><path class="cls-18" d="M100.1,43.88a.79.79,0,0,1-.6-.23.81.81,0,0,1-.23-.6v0a1.06,1.06,0,0,1,.1-.45.79.79,0,0,1,.27-.3.84.84,0,0,1,.41-.11.67.67,0,0,1,.54.22.86.86,0,0,1,.19.61v.18h-1a.4.4,0,0,0,.12.26.4.4,0,0,0,.28.1.46.46,0,0,0,.4-.19l.22.25a.73.73,0,0,1-.27.22A1,1,0,0,1,100.1,43.88Zm0-1.37a.26.26,0,0,0-.21.09.45.45,0,0,0-.11.26h.62v0a.34.34,0,0,0-.08-.23A.31.31,0,0,0,100.05,42.51Z" transform="translate(-35.25 11.02)"/><path class="cls-18" d="M104.49,42.6h-.16a.32.32,0,0,0-.32.17v1.09h-.45V42.18H104v.2a.42.42,0,0,1,.37-.23l.14,0Z" transform="translate(-35.25 11.02)"/><path class="cls-18" d="M107.85,43.3l.31-1.12h.47l-.57,1.67h-.42l-.56-1.67h.46Z" transform="translate(-35.25 11.02)"/><path class="cls-18" d="M111.81,43.85h-.45V42.18h.45Zm-.47-2.1a.2.2,0,0,1,.07-.16.21.21,0,0,1,.18-.07.24.24,0,0,1,.18.07.24.24,0,0,1,.07.16.26.26,0,0,1-.07.17.28.28,0,0,1-.18.06.24.24,0,0,1-.18-.06A.22.22,0,0,1,111.34,41.75Z" transform="translate(-35.25 11.02)"/><path class="cls-18" d="M115.39,43.52a.27.27,0,0,0,.2-.07.22.22,0,0,0,.08-.18h.42a.55.55,0,0,1-.1.31.56.56,0,0,1-.24.22.85.85,0,0,1-.35.08.71.71,0,0,1-.57-.23.92.92,0,0,1-.2-.62v0a.91.91,0,0,1,.2-.61.75.75,0,0,1,.57-.23.67.67,0,0,1,.49.18.6.6,0,0,1,.2.47h-.42a.3.3,0,0,0-.08-.21.28.28,0,0,0-.2-.08.26.26,0,0,0-.24.12.64.64,0,0,0-.08.36v0a.7.7,0,0,0,.08.37A.28.28,0,0,0,115.39,43.52Z" transform="translate(-35.25 11.02)"/><path class="cls-18" d="M119.63,43.88a.78.78,0,0,1-.6-.23.81.81,0,0,1-.23-.6v0a.93.93,0,0,1,.1-.45.66.66,0,0,1,.27-.3.81.81,0,0,1,.41-.11.65.65,0,0,1,.53.22.86.86,0,0,1,.2.61v.18h-1.06a.46.46,0,0,0,.13.26.37.37,0,0,0,.28.1.47.47,0,0,0,.4-.19l.22.25a.69.69,0,0,1-.28.22A.91.91,0,0,1,119.63,43.88Zm0-1.37a.29.29,0,0,0-.22.09.45.45,0,0,0-.1.26h.62v0a.34.34,0,0,0-.09-.23A.29.29,0,0,0,119.58,42.51Z" transform="translate(-35.25 11.02)"/><path class="cls-18" d="M124,43.39a.14.14,0,0,0-.09-.13,1,1,0,0,0-.25-.09c-.4-.08-.6-.25-.6-.5a.44.44,0,0,1,.19-.37.73.73,0,0,1,.48-.15.76.76,0,0,1,.5.15.47.47,0,0,1,.19.39H124a.2.2,0,0,0-.07-.16.24.24,0,0,0-.18-.06.3.3,0,0,0-.18.05.18.18,0,0,0-.06.13.13.13,0,0,0,.07.12.83.83,0,0,0,.23.08,1.54,1.54,0,0,1,.29.07.47.47,0,0,1,.35.45.45.45,0,0,1-.2.37.85.85,0,0,1-.5.14.87.87,0,0,1-.37-.08.75.75,0,0,1-.26-.2.49.49,0,0,1-.09-.28h.42a.26.26,0,0,0,.09.18.36.36,0,0,0,.22.06.27.27,0,0,0,.19-.05A.15.15,0,0,0,124,43.39Z" transform="translate(-35.25 11.02)"/><path class="cls-18" d="M127.25,43.63a.21.21,0,0,1,.07-.17.25.25,0,0,1,.43.17.26.26,0,0,1-.07.17.28.28,0,0,1-.18.06.24.24,0,0,1-.18-.06A.22.22,0,0,1,127.25,43.63Z" transform="translate(-35.25 11.02)"/><path class="cls-18" d="M130.68,43.63a.24.24,0,0,1,.25-.24.26.26,0,0,1,.26.24.23.23,0,0,1-.08.17.24.24,0,0,1-.18.06.28.28,0,0,1-.18-.06A.26.26,0,0,1,130.68,43.63Z" transform="translate(-35.25 11.02)"/><path d="M115.88,34.32a3.85,3.85,0,0,1,.55-2.51A2,2,0,0,1,118,31a2.42,2.42,0,0,1,2.17,1.58v3.82a3.37,3.37,0,0,1-.64,2.42,2,2,0,0,1-3.12-.09,3.7,3.7,0,0,1-.55-2.44Zm5.9-6.74h.93V27.3h-2.52V32A2.66,2.66,0,0,0,118,30.73a3.67,3.67,0,0,0-2.7,1.23,4,4,0,0,0-1,2.82v.94a3.92,3.92,0,0,0,1,2.94A3.85,3.85,0,0,0,118,39.82a3.68,3.68,0,0,0,3.55-2.55,4.64,4.64,0,0,0,.2-1.51Z" transform="translate(-35.25 11.02)"/><path d="M136.36,38a2.4,2.4,0,0,1-2.16,1.57,2,2,0,0,1-1.59-.79,3.88,3.88,0,0,1-.55-2.52V34.14a3.41,3.41,0,0,1,.63-2.43,2,2,0,0,1,3.12.1,3.7,3.7,0,0,1,.55,2.44Zm1.6-3.14a3.9,3.9,0,0,0-1-2.93,3.82,3.82,0,0,0-2.73-1.16,3.69,3.69,0,0,0-3.55,2.55,4.58,4.58,0,0,0-.2,1.5v1a4.11,4.11,0,0,0,1,2.83,3.71,3.71,0,0,0,2.71,1.23,2.69,2.69,0,0,0,2.25-1.26v1.73a3.4,3.4,0,0,1-.21,1.58,2,2,0,0,1-.65.85,2.4,2.4,0,0,1-1.31.39,2,2,0,0,1-2-1.2.82.82,0,0,0,.55.19.86.86,0,0,0,.9-.9.9.9,0,0,0-.91-.91,1,1,0,0,0-1,1.07,2.21,2.21,0,0,0,2.43,2,3.71,3.71,0,0,0,3.52-2.61,9.57,9.57,0,0,0,.18-2.25Z" transform="translate(-35.25 11.02)"/><path class="cls-18" d="M140.18,42.76a1.13,1.13,0,0,0,1.1,1.16,1.14,1.14,0,0,0,1.17-1.1,1.17,1.17,0,0,0-1.12-1.17A1.14,1.14,0,0,0,140.18,42.76Z" transform="translate(-35.25 11.02)"/><polygon points="104.43 43.1 104.42 43.38 105.32 43.41 105.12 51.95 107.65 52.01 107.65 51.72 106.72 51.7 106.92 43.44 107.85 43.47 107.86 43.18 104.43 43.1"/><path d="M126.64,29.76a.86.86,0,1,0-.86.86A.87.87,0,0,0,126.64,29.76Z" transform="translate(-35.25 11.02)"/><polygon points="92.3 51.83 92.3 51.54 91.4 51.54 91.4 43 88.87 43 88.87 43.29 89.8 43.29 89.8 51.54 88.87 51.54 88.87 51.83 92.3 51.83"/><path class="cls-19" d="M112.67,25.86q14-9.73,27.89.18" transform="translate(-35.25 11.02)"/><path class="cls-18" d="M124.64,29.47a1.14,1.14,0,0,0,2.28.06,1.17,1.17,0,0,0-1.12-1.17A1.15,1.15,0,0,0,124.64,29.47Z" transform="translate(-35.25 11.02)"/></svg>